<?xml version="1.0" encoding="utf-8"?>
<!-- Generator: Adobe Illustrator 16.0.0, SVG Export Plug-In . SVG Version: 6.00 Build 0)  -->
<!DOCTYPE svg PUBLIC "-//W3C//DTD SVG 1.1//EN" "http://www.w3.org/Graphics/SVG/1.1/DTD/svg11.dtd">
<svg version="1.1" id="Layer_1" xmlns="http://www.w3.org/2000/svg" xmlns:xlink="http://www.w3.org/1999/xlink" x="0px" y="0px"
	 width="274.827px" height="26.623px" viewBox="0 0 274.827 26.623" enable-background="new 0 0 274.827 26.623"
	 xml:space="preserve">
<path fill="#24B798" d="M18.387,25.596c1.135-0.087,2.276-0.22,3.414-0.261c1.061-0.039,2.121-0.08,3.181-0.119
	c5.808-0.215,11.614-0.491,17.425-0.575c6.078-0.089,12.156-0.236,18.234-0.252c6.202-0.015,12.403-0.04,18.605-0.011
	c12.09,0.061,24.177,0.113,36.264,0.143c12.006,0.029,24.012,0.036,36.018-0.023c5.959-0.029,11.919-0.173,17.876-0.287
	c5.85-0.111,11.693-0.302,17.541-0.521c1.285-0.048,2.568-0.144,3.853-0.217c1.268-0.074,2.538-0.133,3.805-0.229
	c3.253-0.247,6.501-0.511,9.75-0.804c5.655-0.515,11.293-1.198,16.956-1.626c5.933-0.447,11.879-0.702,17.818-1.066
	c2.68-0.165,5.375-0.369,8.037-0.731c3.044-0.411,6.06-0.908,9.068-1.527c2.907-0.6,5.813-1.216,8.725-1.805
	c1.396-0.283,2.801-0.541,4.211-0.743c1.596-0.229,3.178-0.464,4.753-0.803c0.758-0.164,0.907-1.169,0.907-1.815
	c0.003-0.367-0.056-0.725-0.175-1.071c-0.111-0.291-0.345-0.756-0.732-0.742c-2.843,0.095-5.685,0.19-8.525,0.323
	c-2.867,0.133-5.738,0.216-8.608,0.255c-5.574,0.075-11.158-0.116-16.726-0.347c0.949-0.127,1.898-0.254,2.847-0.382
	c3.408-0.46,6.807-1.038,10.233-1.349c1.822-0.165,3.651-0.304,5.47-0.517c0.922-0.106,1.837-0.23,2.748-0.413
	c0.979-0.195,1.943-0.464,2.906-0.731c0.309-0.033,0.543-0.188,0.702-0.458c0.283-0.388,0.413-0.908,0.462-1.406
	c0.975-0.298,1.17-1.727,1.17-2.586c0.007-0.532-0.078-1.049-0.253-1.551c-0.168-0.441-0.491-1.066-1.058-1.072
	c-2.959-0.033-5.913-0.232-8.872-0.269C256.069,0.002,255.722,0,255.375,0c-2.546,0-5.088,0.11-7.631,0.247
	c-5.664,0.303-11.331,0.666-16.989,1.074c-2.631,0.188-5.258,0.411-7.892,0.569c-3.22,0.193-6.434,0.341-9.655,0.466
	c-5.393,0.208-10.794,0.289-16.188,0.388c-6.188,0.114-12.367,0.275-18.549,0.564c-5.726,0.269-11.445,0.625-17.166,0.966
	c-5.745,0.341-11.489,0.678-17.233,1.022c-5.888,0.354-11.78,0.615-17.673,0.877c-2.981,0.135-5.967,0.174-8.95,0.258
	c-2.823,0.08-5.649,0.101-8.475,0.142c-5.561,0.082-11.121,0.131-16.683,0.188C81.073,6.875,69.86,7.057,58.644,7.242
	c-6.162,0.103-12.322,0.216-18.484,0.33c-3.143,0.059-6.287,0.183-9.428,0.272c-2.687,0.077-5.371,0.258-8.056,0.395
	c-2.858,0.146-5.716,0.308-8.574,0.472C12.402,8.81,10.701,8.91,9,9.008c-0.738,0.044-1.478,0.086-2.217,0.13
	c-0.674,0.039-1.348,0.089-2.02,0.14C4.285,9.313,3.813,9.383,3.34,9.463C2.816,9.551,2.293,9.784,1.79,9.954
	c-0.302,0.239-0.511,0.544-0.627,0.915c-0.169,0.487-0.251,0.989-0.245,1.506c-0.006,0.519,0.076,1.021,0.245,1.509
	c0.092,0.184,0.184,0.367,0.276,0.551c0.171,0.292,0.423,0.457,0.753,0.493c0.584,0.165,1.161,0.329,1.761,0.429
	c0.329-0.036,0.579-0.198,0.751-0.489c0.064-0.089,0.121-0.184,0.172-0.284c0.314-0.008,0.629-0.007,0.944-0.007
	c0.301,0,0.603-0.001,0.905-0.009c0.68-0.016,1.357-0.031,2.037-0.048c1.749-0.041,3.498-0.083,5.247-0.124
	c1.896-0.045,3.79-0.079,5.685-0.112c-0.196,0.018-0.392,0.034-0.587,0.05c-4.477,0.348-8.949,0.697-13.421,1.095
	c-0.725,0.081-1.274,0.441-1.652,1.08c-0.559,0.765-0.864,1.749-1.016,2.738c-0.786-0.008-1.573-0.017-2.359-0.022
	C0.108,19.219,0,20.176,0,20.543c0,0.374,0.108,1.313,0.659,1.318c0.754,0.008,1.507,0.021,2.26,0.03
	c0.065,0.831,0.233,1.644,0.51,2.44c0.201,0.403,0.403,0.808,0.605,1.211c0.378,0.639,0.928,0.999,1.652,1.08
	C9.919,26.248,14.152,25.92,18.387,25.596z"/>
</svg>
