<svg xmlns="http://www.w3.org/2000/svg" xmlns:xlink="http://www.w3.org/1999/xlink" viewBox="0 0 572.74 406.47"><defs><style>.cls-1{fill:none;}.cls-2{clip-path:url(#clip-path);}.cls-3{fill:#fabd42;}.cls-4{fill:#445eb4;}.cls-5{fill:#56c6c8;}.cls-6{fill:#fff;}.cls-7{fill:#18938d;}.cls-8{fill:#f5821f;}.cls-9{fill:#4c4e55;}.cls-10{clip-path:url(#clip-path-2);}.cls-11{fill:#d25543;}</style><clipPath id="clip-path" transform="translate(-1.01)"><rect class="cls-1" x="45.02" y="0.09" width="441.75" height="333.75"/></clipPath><clipPath id="clip-path-2" transform="translate(-1.01)"><rect class="cls-1" y="0.09" width="573.75" height="407.25"/></clipPath></defs><title>Asset 1</title><g id="Layer_2" data-name="Layer 2"><g id="Layer_1-2" data-name="Layer 1"><g class="cls-2"><path class="cls-3" d="M123.07,83.53a5.19,5.19,0,0,1-5.19-5.18V53.8a5.2,5.2,0,0,1,5.19-5.18h28.05a5.19,5.19,0,0,1,5.19,5.18V78.35a5.18,5.18,0,0,1-5.19,5.18H123.07" transform="translate(-1.01)"/><path class="cls-4" d="M151.12,53.8V78.35H123.07V53.8h28.05m0-10.37H123.07A10.39,10.39,0,0,0,112.69,53.8V78.35a10.37,10.37,0,0,0,10.38,10.37h28.05A10.37,10.37,0,0,0,161.5,78.35V53.8a10.38,10.38,0,0,0-10.38-10.37Z" transform="translate(-1.01)"/><path class="cls-3" d="M380.66,83.53a5.18,5.18,0,0,1-5.19-5.18V53.8a5.18,5.18,0,0,1,5.19-5.18h28a5.18,5.18,0,0,1,5.19,5.18V78.35a5.18,5.18,0,0,1-5.19,5.18h-28" transform="translate(-1.01)"/><path class="cls-4" d="M408.7,53.8V78.35h-28V53.8h28m0-10.37h-28A10.39,10.39,0,0,0,370.28,53.8V78.35a10.37,10.37,0,0,0,10.38,10.37h28a10.36,10.36,0,0,0,10.38-10.37V53.8A10.37,10.37,0,0,0,408.7,43.43Z" transform="translate(-1.01)"/><path class="cls-3" d="M335.68,114.9a17.4,17.4,0,0,1-17.41-17.37V39.94H213.52V97.53a17.4,17.4,0,0,1-34.8,0V39.46A34.33,34.33,0,0,1,213,5.19H318.75a34.33,34.33,0,0,1,34.32,34.27V97.53a17.4,17.4,0,0,1-17.39,17.37" transform="translate(-1.01)"/><path class="cls-4" d="M318.75,10.37a29.14,29.14,0,0,1,29.13,29.09V97.53a12.21,12.21,0,0,1-24.42,0V39.46a4.71,4.71,0,0,0-4.71-4.7H213a4.71,4.71,0,0,0-4.7,4.7V97.53a12.21,12.21,0,0,1-24.42,0V39.46A29.14,29.14,0,0,1,213,10.37H318.75m0-10.37H213a39.52,39.52,0,0,0-39.5,39.46V97.53a22.59,22.59,0,0,0,45.18,0V45.13h94.37v52.4a22.59,22.59,0,0,0,45.18,0V39.46A39.53,39.53,0,0,0,318.75,0" transform="translate(-1.01)"/><path class="cls-5" d="M108.35,328.56a38.92,38.92,0,0,1-38.92-38.87V122.85A38.93,38.93,0,0,1,108.35,84H423.44a38.94,38.94,0,0,1,38.91,38.87V289.69a38.93,38.93,0,0,1-38.91,38.87H108.35" transform="translate(-1.01)"/><path class="cls-4" d="M423.44,89.17a33.7,33.7,0,0,1,33.72,33.68V289.69a33.69,33.69,0,0,1-33.72,33.69H108.35a33.69,33.69,0,0,1-33.73-33.69V122.85a33.7,33.7,0,0,1,33.73-33.68H423.44m0-10.37H108.35a44.13,44.13,0,0,0-44.11,44.05V289.69a44.13,44.13,0,0,0,44.11,44.06H423.44a44.12,44.12,0,0,0,44.1-44.06V122.85a44.12,44.12,0,0,0-44.1-44" transform="translate(-1.01)"/><path class="cls-6" d="M114.23,246.73V165.84a5.19,5.19,0,1,0-10.38,0v80.89a5.19,5.19,0,0,0,10.38,0" transform="translate(-1.01)"/><path class="cls-6" d="M225.4,24.78h81a5.19,5.19,0,1,0,0-10.37h-81a5.19,5.19,0,1,0,0,10.37" transform="translate(-1.01)"/><path class="cls-7" d="M423.44,323.38H108.35a33.69,33.69,0,0,1-33.73-33.69V241.11c36.36,41.32,89.48,67.73,147.82,67.73,96.8,0,179.18-72.66,194.6-165.52h40.12V289.69a33.69,33.69,0,0,1-33.72,33.69" transform="translate(-1.01)"/><path class="cls-3" d="M55.47,138.13a5.19,5.19,0,0,1-5.2-5.18V114.51a42.32,42.32,0,0,1,42.3-42.25H271.1a5.19,5.19,0,0,1,5.19,5.19V133a5.18,5.18,0,0,1-5.19,5.18H55.47" transform="translate(-1.01)"/><path class="cls-4" d="M271.1,77.45V133H55.47V114.51a37.08,37.08,0,0,1,37.1-37.06H271.1m0-10.37H92.57a47.51,47.51,0,0,0-47.49,47.43V133a10.37,10.37,0,0,0,10.39,10.37H271.1A10.37,10.37,0,0,0,281.48,133V77.45A10.37,10.37,0,0,0,271.1,67.08" transform="translate(-1.01)"/><path class="cls-3" d="M277.19,138.13A5.19,5.19,0,0,1,272,133V77.45a5.2,5.2,0,0,1,5.19-5.19h162a42.32,42.32,0,0,1,42.29,42.25V133a5.18,5.18,0,0,1-5.19,5.18H277.19" transform="translate(-1.01)"/><path class="cls-4" d="M439.22,77.45a37.08,37.08,0,0,1,37.1,37.06V133H277.19V77.45h162m0-10.37h-162a10.37,10.37,0,0,0-10.38,10.37V133a10.37,10.37,0,0,0,10.38,10.37H476.32A10.37,10.37,0,0,0,486.7,133V114.51a47.5,47.5,0,0,0-47.48-47.43" transform="translate(-1.01)"/><path class="cls-8" d="M266.81,133H55.47V114.51a34.72,34.72,0,0,1,.24-4.1h211.1V133" transform="translate(-1.01)"/><path class="cls-8" d="M476.32,133H277.19V110.41H476.07a34.72,34.72,0,0,1,.25,4.1V133" transform="translate(-1.01)"/><polyline class="cls-9" points="475.31 132.95 265.8 132.95 265.8 110.41 276.18 110.41 276.18 132.95 475.31 132.95 475.31 114.5 475.31 132.95"/><polyline class="cls-6" points="140.09 109.7 108.03 109.7 108.03 100.71 140.09 100.71 140.09 109.7"/><polyline class="cls-6" points="119.55 121.23 119.55 89.17 128.55 89.17 128.55 121.23 119.55 121.23"/><polyline class="cls-6" points="421.75 109.7 389.67 109.7 389.67 100.71 421.75 100.71 421.75 109.7"/><polyline class="cls-4" points="288.33 185.26 302.79 171.23 270.42 171.23 213.47 242.54 270.85 242.47 227.01 290.82 291.15 230.34 242.04 230.19 288.33 185.26"/></g><g class="cls-10"><path class="cls-11" d="M564.55,44.86l-1.27,0q-6.59.33-16,5.37L51,328.91q-2.76,2.35-45.88,23c-3.39,1.35-4.68,3.85-3.84,7.51l4.89,24.13,1.34,0q16.91-1.92,43.78-16.19,125.61-79,181.9-110.91,90-51.16,165.51-92.54,60.07-33.12,100.8-53.18l44.64-26.12a81.93,81.93,0,0,0,27.16-23.89q2.46-2.61,2.47-10.2-1.46-5.46-9.2-5.61" transform="translate(-1.01)"/><path class="cls-11" d="M32.45,5.92l-3.16.35q-9.63,3-12.89,11.81-3.63,8.06,5.94,13.63,12.3,9.48,26.89,19.14,48.51,29.82,78.28,50.21,37.24,25.55,60.69,43,20.88,15.81,41.66,33.58l79.38,69.17q32.06,26.25,80.19,60.81,137.49,95,158,98.76,2.87.94,9.08-8.89l7.17-13c.66-1.15,1.31-1.72,1.95-1.72l-2.26-2q-5.52-4.37-21.59-13.91Q459.54,320.15,452,314.74,423,297,380.84,267.37q-46.5-33.18-63.22-47.13-89.26-80-120-102.08Q39.51.09,32.45,5.92" transform="translate(-1.01)"/></g></g></g></svg>